<?xml version="1.0" standalone="no"?>
<!DOCTYPE svg PUBLIC "-//W3C//DTD SVG 20010904//EN"
 "http://www.w3.org/TR/2001/REC-SVG-20010904/DTD/svg10.dtd">
<svg version="1.0" xmlns="http://www.w3.org/2000/svg"
 width="700.000000pt" height="700.000000pt" viewBox="0 0 700.000000 700.000000"
 preserveAspectRatio="xMidYMid meet">
<metadata>
Created by potrace 1.11, written by Peter Selinger 2001-2013
</metadata>
<g transform="translate(0.000000,700.000000) scale(0.100000,-0.100000)"
fill="#000000" stroke="none">
<path d="M1873 6988 c-22 -11 -53 -64 -53 -91 0 -23 232 -485 312 -622 250
-424 346 -562 512 -729 175 -177 181 -181 959 -725 246 -172 447 -316 447
-319 0 -4 -58 -46 -128 -94 -70 -48 -161 -110 -202 -139 -41 -28 -131 -91
-200 -139 -69 -47 -154 -106 -190 -131 -36 -25 -103 -72 -150 -104 -294 -201
-334 -232 -445 -341 -67 -65 -250 -295 -322 -404 -161 -243 -258 -505 -299
-810 -3 -25 -8 -48 -10 -51 -5 -8 79 -334 111 -434 71 -219 193 -415 366 -591
l71 -72 -52 -63 c-62 -76 -271 -389 -658 -988 -80 -124 -59 -143 157 -140 163
1 186 7 233 56 15 15 53 73 85 128 65 110 52 102 192 120 30 4 61 8 70 10 9 1
39 6 66 9 28 4 61 9 75 11 239 38 483 65 544 60 177 -13 206 -15 281 -20 44
-3 112 -8 150 -12 39 -3 79 -5 89 -5 25 1 33 -4 185 -103 247 -161 376 -206
581 -202 63 2 92 7 112 20 33 23 58 74 58 120 0 74 -13 84 -520 374 -261 150
-486 278 -500 285 -14 7 -48 27 -77 45 -29 18 -54 33 -57 33 -3 0 -58 31 -123
68 -65 38 -143 83 -173 99 -104 58 -120 68 -120 75 0 11 317 242 630 460 14
10 55 39 92 65 37 27 142 102 235 168 436 310 607 451 919 760 202 200 243
250 272 327 25 68 30 108 37 298 3 85 8 195 10 243 l5 88 -41 77 c-23 42 -68
122 -99 177 -31 55 -70 125 -87 155 -166 305 -286 487 -372 564 l-22 20 54 55
c83 86 289 342 411 509 75 103 78 126 80 637 l1 150 -104 195 c-147 274 -148
277 -242 454 -46 88 -99 174 -118 193 -41 40 -101 59 -196 63 -240 9 -245 8
-292 -33 -32 -28 -57 -99 -49 -140 4 -24 3 -34 -6 -34 -20 -1 -150 -14 -176
-18 -13 -2 -53 -7 -90 -10 -37 -3 -78 -8 -92 -10 -14 -3 -56 -7 -95 -11 -38
-3 -77 -7 -85 -9 -34 -7 -177 -19 -198 -18 -19 2 -238 43 -307 59 -11 2 -33 7
-50 10 -16 2 -192 37 -390 75 -198 39 -371 73 -385 75 -14 3 -69 14 -124 24
-54 11 -100 20 -101 20 -2 0 -18 27 -36 61 -37 69 -74 104 -127 119 -48 13
-210 12 -239 -2z m1921 -552 c22 -3 88 -10 146 -16 58 -6 123 -12 145 -15 22
-2 67 -7 100 -10 33 -3 76 -8 95 -10 57 -6 131 -14 200 -21 82 -8 102 -12 111
-21 34 -36 316 -409 311 -410 -4 -2 -155 -37 -337 -79 -337 -78 -380 -84 -520
-71 -44 4 -100 10 -125 12 -80 6 -184 16 -220 20 -19 3 -75 7 -125 11 -49 3
-101 7 -115 9 -14 2 -61 7 -105 10 -44 4 -98 8 -120 11 -22 2 -74 7 -115 10
-41 3 -86 7 -100 8 -14 2 -33 4 -44 4 -25 3 -245 226 -344 350 -45 57 -82 105
-82 107 0 2 8 3 18 3 9 0 49 2 87 6 39 4 88 9 111 11 42 4 303 31 384 40 61 7
112 12 195 20 39 3 81 8 95 10 14 2 59 7 100 10 41 4 76 8 78 10 4 3 125 -2
176 -9z m566 -780 c14 -2 50 -7 80 -10 64 -6 128 -13 260 -27 52 -5 118 -12
145 -14 28 -3 68 -7 90 -9 22 -3 72 -8 110 -12 39 -4 79 -8 90 -9 11 -1 28 -3
38 -4 15 -1 14 -6 -10 -43 -83 -128 -157 -220 -283 -348 l-85 -87 -145 -52
c-80 -28 -161 -51 -180 -51 -19 0 -73 7 -120 16 -47 8 -100 17 -118 20 -22 3
-175 99 -457 287 -232 155 -422 283 -421 284 1 2 29 5 62 8 32 3 86 7 119 10
33 3 83 7 110 10 28 2 82 7 120 10 39 3 90 7 115 9 25 2 90 7 145 11 55 4 102
9 104 11 5 5 197 -4 231 -10z m205 -775 c13 -2 -43 -51 -58 -51 -7 0 -25 9
-42 20 -29 19 -29 20 15 33 13 4 39 3 85 -2z m-73 -688 c76 -55 62 -60 -166
-54 -26 1 -24 4 35 45 35 25 68 45 73 45 4 1 31 -16 58 -36z m235 -218 c67
-71 181 -232 281 -396 l22 -36 -123 -24 c-67 -12 -124 -23 -127 -24 -3 -1 -27
-5 -55 -10 -27 -4 -54 -9 -60 -11 -282 -63 -399 -71 -630 -40 -51 7 -151 18
-196 21 -23 2 -63 6 -88 9 -25 4 -66 9 -91 11 -25 3 -61 7 -80 10 -19 2 -64 7
-100 11 -36 3 -66 7 -67 8 -1 1 80 61 180 133 164 117 194 134 287 168 58 20
141 50 185 65 44 16 169 60 279 98 l199 69 76 -14 c64 -12 81 -20 108 -48z
m128 -670 c317 -12 328 -13 347 -37 10 -13 18 -26 18 -29 0 -15 -153 -158
-264 -246 l-118 -95 -96 -19 c-53 -11 -110 -22 -127 -24 -16 -3 -52 -10 -80
-15 -27 -5 -61 -12 -75 -14 -14 -3 -47 -9 -75 -15 -27 -5 -70 -12 -95 -16 -24
-4 -47 -8 -50 -10 -3 -2 -24 -6 -46 -9 -22 -4 -51 -9 -64 -12 -14 -2 -47 -9
-75 -14 -144 -26 -443 -82 -502 -95 -64 -13 -189 -14 -368 -1 -27 2 -97 7
-155 10 -58 4 -132 9 -165 11 -243 15 -389 25 -392 28 -2 3 103 116 221 236
l101 105 55 2 c30 1 111 14 181 28 69 13 137 27 151 30 14 2 117 22 229 45
112 22 220 43 239 46 19 3 53 10 75 15 22 5 54 11 70 14 17 3 129 26 250 51
l220 44 225 -5 c124 -2 288 -7 365 -9z m-1205 -771 c41 -3 82 -8 90 -9 14 -2
61 -7 190 -20 83 -9 243 -26 275 -31 11 -1 35 -3 54 -3 33 -1 34 -1 14 -18
-34 -30 -74 -60 -176 -131 -224 -156 -372 -258 -391 -268 -12 -7 -113 -36
-226 -65 -244 -63 -305 -67 -490 -29 -25 5 -85 14 -135 20 -49 6 -112 15 -140
20 -27 6 -67 12 -87 14 -46 5 -192 28 -195 31 -9 6 -131 320 -127 326 2 4 12
7 22 7 9 0 35 3 57 6 85 15 272 45 310 51 22 3 96 15 165 26 69 11 136 22 150
24 14 3 97 16 185 30 88 15 183 29 210 32 28 3 51 6 52 8 2 1 29 -2 60 -6 32
-4 92 -11 133 -15z m-280 -714 c2 0 -20 -16 -50 -36 -118 -77 -309 -225 -391
-301 l-46 -43 -39 36 c-21 20 -81 75 -132 122 -52 47 -101 91 -110 98 -16 12
-3 16 118 38 78 14 317 61 390 77 71 15 166 18 260 9z m-45 -1081 c179 -116
325 -212 325 -213 0 -2 -6 -3 -12 -3 -7 -1 -31 -4 -53 -8 -22 -4 -99 -17 -171
-29 l-131 -22 -159 41 c-88 24 -216 57 -286 76 -71 18 -128 37 -128 42 0 19
271 327 287 327 2 0 150 -95 328 -211z"/>
</g>
</svg>
